<?xml version="1.0" encoding="UTF-8"?>
<svg width="45px" height="17px" viewBox="0 0 45 17" version="1.1" xmlns="http://www.w3.org/2000/svg" xmlns:xlink="http://www.w3.org/1999/xlink">
    <!-- Generator: Sketch 61.2 (89653) - https://sketch.com -->
    <title>eSSENTIAL ACCESSIBILITY-Logo-Desktop</title>
    <desc>Created with Sketch.</desc>
    <g id="Page-1" stroke="none" stroke-width="1" fill="none" fill-rule="evenodd">
        <g id="WEB-Desktop-Essential-Accessability-Logo" transform="translate(-911.000000, -277.000000)" fill-rule="nonzero">
            <g id="eSSENTIAL-ACCESSIBILITY-Logo-Desktop" transform="translate(911.000000, 277.000000)">
                <rect id="Rectangle" fill="#BCD9EA" x="0" y="0" width="22.8609626" height="16.7647059" rx="8.38235294"></rect>
                <rect id="Rectangle" fill="#BCD9EA" x="21.3368984" y="0" width="22.8609626" height="16.7647059" rx="8.38235294"></rect>
                <circle id="Oval" fill="#FFFFFF" cx="22.0989305" cy="7.62032086" r="5.3342246"></circle>
                <path d="M9.53937752,4.57216165 C10.1691519,4.56446016 10.6740344,4.048762 10.6684025,3.41895051 C10.6627707,2.78913901 10.1487468,2.28255249 9.51893539,2.28609626 C8.889124,2.28967738 8.3808634,2.80204632 8.38235294,3.43188122 C8.38457176,3.73652863 8.50771851,4.0278174 8.72470387,4.24166321 C8.94168923,4.45550902 9.2347376,4.57439347 9.53937752,4.57216165 Z" id="Path" fill="#103C60"></path>
                <path d="M11.6325997,10.5629349 C11.4815952,10.609887 11.3672811,10.7330604 11.3326431,10.8861382 L11.3326431,10.9027601 C11.1031744,11.5771079 10.5624438,12.1021529 9.87757428,12.31562 C9.5830603,12.4062383 9.27215019,12.4320797 8.96652606,12.3913419 L8.96652606,12.3913419 C8.51509206,12.3172121 8.09470377,12.1158989 7.75552128,11.8114229 L7.72012268,11.7892604 C7.68658716,11.7578635 7.65491473,11.7246197 7.62510538,11.691376 L7.54126659,11.6045728 L7.51518341,11.5713291 C7.33009692,11.341887 7.19154521,11.0791102 7.10716795,10.7974881 L7.10716795,10.7974881 C7.01061422,10.4748393 6.98394822,10.1356029 7.02891841,9.80202214 C7.12200342,9.08954665 7.55064855,8.46313826 8.18403067,8.11397775 L8.19707226,8.1028965 C8.38258031,8.02499604 8.49423686,7.83535054 8.47142174,7.63692164 C8.44860663,7.43849274 8.29676281,7.27861933 8.09832879,7.2440993 C8.01105532,7.23090239 7.92180365,7.24511008 7.84308624,7.28473056 L7.84308624,7.28473056 C6.91029976,7.75931988 6.27030477,8.65579298 6.12904871,9.68566897 C6.05980033,10.1686591 6.10054308,10.6608914 6.2482861,11.126232 L6.2482861,11.126232 C6.47812514,11.9093137 7.01324009,12.569343 7.73525387,12.9603096 C8.45726764,13.3512763 9.30666904,13.4409552 10.0955551,13.2095078 C11.0932626,12.8967387 11.8707401,12.1156569 12.1728941,11.1225383 L12.1728941,11.1225383 C12.1990531,11.0364134 12.1990531,10.9445599 12.1728941,10.858435 C12.1413009,10.7478865 12.0664217,10.6544536 11.9649357,10.5989484 C11.8634496,10.5434433 11.743786,10.5304759 11.6325997,10.5629349 L11.6325997,10.5629349 Z" id="Path" fill="#103C60"></path>
                <path d="M15.5731747,11.237752 C15.4788961,11.0819925 15.2766464,11.0283778 15.1162562,11.1166267 L14.6173011,11.3932262 L13.3543783,9.50764966 C13.276512,9.36823441 13.1297144,9.28014828 12.9687391,9.27624621 L10.5927627,9.27624621 L10.5927627,8.52960853 L12.2376694,8.52960853 C12.4789835,8.503857 12.6618942,8.30236234 12.6618942,8.06228205 C12.6618942,7.82220176 12.4789835,7.6207071 12.2376694,7.59495556 L10.5927627,7.59495556 L10.5927627,6.62414579 C10.5927627,6.33260069 10.3538257,6.09625668 10.0590819,6.09625668 C9.76433812,6.09625668 9.52540107,6.33260069 9.52540107,6.62414579 L9.52540107,9.6974728 C9.5310764,9.96963912 9.73984276,10.1954751 10.0133901,10.2253619 C10.049892,10.2280775 10.0865486,10.2280775 10.1230505,10.2253619 L12.8791831,10.2253619 L14.0799649,12.0151229 C14.1365942,12.0999902 14.224458,12.15966 14.3248733,12.1814441 C14.3493589,12.1878392 14.3744965,12.1914779 14.3998079,12.1922912 L14.410774,12.1922912 C14.4556691,12.193924 14.5004334,12.1865442 14.5423665,12.1705971 L14.5661262,12.1705971 L14.5880583,12.1705971 L15.4470652,11.6951353 C15.527202,11.6530084 15.5861864,11.5800086 15.6100646,11.4934055 C15.6339428,11.4068024 15.6205934,11.3142893 15.5731747,11.237752 Z" id="Path" fill="#103C60"></path>
                <path d="M36.9585348,12.8594073 C36.9585348,12.9119506 36.9200307,12.9545455 36.8725624,12.9545455 L29.8052005,12.9545455 C29.7577321,12.9545455 29.7192513,12.9119506 29.7192513,12.8594073 L29.7192513,10.0030997 C29.7192513,9.95055638 29.7577321,9.90793578 29.8052005,9.90793578 L36.8725624,9.90793578 C36.8955189,9.90736341 36.9176958,9.91719467 36.933933,9.93516784 C36.9501702,9.95314101 36.9590519,9.97768887 36.9585348,10.0030997 L36.9585348,12.8594073 M32.3660936,11.268005 L33.0634535,11.268005 C33.104763,11.2668322 33.1376959,11.2294191 33.1376823,11.183678 L33.1376823,10.4117615 C33.1376959,10.3660204 33.104763,10.3286073 33.0634535,10.3274344 L32.3660936,10.3274344 C32.3240194,10.3274344 32.2899114,10.3651889 32.2899114,10.4117615 L32.2899114,11.183678 C32.2899114,11.2302506 32.3240194,11.268005 32.3660936,11.268005 M31.0416958,11.5447707 L30.3443359,11.5447707 C30.324306,11.544763 30.3051234,11.5537158 30.2911453,11.5695955 C30.2771672,11.5854753 30.26958,11.606934 30.2701071,11.6290977 L30.2701071,12.4010142 C30.2701071,12.4463926 30.3033404,12.483179 30.3443359,12.483179 L31.0416958,12.483179 C31.0617187,12.4837625 31.0811048,12.4753641 31.0954508,12.4598916 C31.1097968,12.444419 31.1178849,12.4231856 31.117878,12.4010142 L31.117878,11.6290977 C31.1184214,11.6065537 31.1105697,11.5847536 31.0961633,11.5688069 C31.0817568,11.5528603 31.0620623,11.5441692 31.0416958,11.5447707 M31.0416958,11.268005 L31.7390557,11.268005 C31.78113,11.268005 31.8152379,11.2302506 31.8152379,11.183678 L31.8152379,10.4117615 C31.8152379,10.3651889 31.78113,10.3274344 31.7390557,10.3274344 L31.0416958,10.3274344 C30.9996215,10.3274344 30.9655136,10.3651889 30.9655136,10.4117615 L30.9655136,11.183678 C30.9655136,11.2302506 30.9996215,11.268005 31.0416958,11.268005 M33.6846313,11.268005 L34.3819912,11.268005 C34.4240655,11.268005 34.4581734,11.2302506 34.4581734,11.183678 L34.4581734,10.4117615 C34.4581734,10.3651889 34.4240655,10.3274344 34.3819912,10.3274344 L33.6846313,10.3274344 C33.6433218,10.3286073 33.6103889,10.3660204 33.6104025,10.4117615 L33.6104025,11.183678 C33.6103889,11.2294191 33.6433218,11.2668322 33.6846313,11.268005 M35.0070757,11.2680051 L35.7044357,11.2680051 C35.7457451,11.2668322 35.778678,11.2294191 35.7786644,11.183678 L35.7786644,10.4117615 C35.778678,10.3660204 35.7457451,10.3286073 35.7044357,10.3274344 L35.0168427,10.3274344 C34.9968128,10.3274344 34.9776303,10.3363796 34.9636521,10.3522593 C34.949674,10.3681391 34.9420868,10.3895978 34.9426139,10.4117615 L34.9426139,11.183678 C34.9420868,11.2058417 34.949674,11.2273004 34.9636521,11.2431802 C34.9776303,11.2590599 34.9968128,11.2680051 35.0168427,11.2680051 M35.0168427,11.5447707 L34.3194828,11.5447707 C34.2994529,11.544763 34.2802703,11.5537158 34.2662922,11.5695955 C34.2523141,11.5854753 34.2447269,11.606934 34.245254,11.6290977 L34.245254,12.4010142 C34.245254,12.4463926 34.2784873,12.483179 34.3194828,12.483179 L35.0168427,12.483179 C35.0368656,12.4837625 35.0562517,12.4753641 35.0705977,12.4598916 C35.0849437,12.444419 35.0930318,12.4231856 35.0930249,12.4010142 L35.0930249,11.6290977 C35.0935683,11.6065537 35.0857166,11.5847536 35.0713102,11.5688069 C35.0569037,11.5528603 35.0372092,11.5441692 35.0168427,11.5447707 M32.3739072,11.5447707 L31.6765473,11.5447707 C31.6565174,11.544763 31.6373348,11.5537158 31.6233567,11.5695955 C31.6093786,11.5854753 31.6017914,11.606934 31.6023185,11.6290977 L31.6023185,12.4010142 C31.6017744,12.4229848 31.60942,12.4442355 31.6234603,12.4597769 C31.6375006,12.4753182 31.6566988,12.4837813 31.6765473,12.483179 L32.3739072,12.483179 C32.3939301,12.4837625 32.4133162,12.4753641 32.4276622,12.4598916 C32.4420082,12.444419 32.4500963,12.4231856 32.4500894,12.4010142 L32.4500894,11.6290977 C32.4506327,11.6065537 32.4427811,11.5847536 32.4283746,11.5688069 C32.4139682,11.5528603 32.3942737,11.5441692 32.3739072,11.5447707 M36.3392871,11.5447706 L35.6419272,11.5447706 C35.6218973,11.5447706 35.6027148,11.5537158 35.5887366,11.5695955 C35.5747585,11.5854753 35.5671713,11.606934 35.5676984,11.6290977 L35.5676984,12.4010142 C35.5676984,12.4463926 35.6009318,12.483179 35.6419272,12.483179 L36.3392871,12.483179 C36.3806102,12.4831941 36.4144097,12.4467402 36.4154693,12.4010142 L36.4154693,11.6290977 C36.4154693,11.5825251 36.3813614,11.5447706 36.3392871,11.5447706 M33.6963516,11.5447707 L32.9989917,11.5447707 C32.9786252,11.5441692 32.9589306,11.5528603 32.9445242,11.5688069 C32.9301178,11.5847536 32.9222661,11.6065537 32.9228095,11.6290977 L32.9228095,12.4010142 C32.9228026,12.4231856 32.9308907,12.444419 32.9452367,12.4598916 C32.9595826,12.4753641 32.9789688,12.4837625 32.9989917,12.483179 L33.6963516,12.483179 C33.7376747,12.4831941 33.7714742,12.4467402 33.7725338,12.4010142 L33.7725338,11.6290977 C33.7725338,11.5825251 33.7384259,11.5447707 33.6963516,11.5447707 M29.9009165,9.42145952 C29.8992958,9.44212 29.9051902,9.46264221 29.9172921,9.47847347 C29.9293939,9.49430474 29.9467026,9.5041361 29.9653784,9.50578654 L36.7319183,9.50578654 C36.7703024,9.50124335 36.7986856,9.4641133 36.7963802,9.42145952 L36.7963802,2.37042328 C36.7980009,2.3497628 36.7921065,2.32924059 36.7800046,2.31340933 C36.7679028,2.29757806 36.7505941,2.2877467 36.7319183,2.28609626 L29.9556114,2.28609626 C29.9369357,2.2877467 29.919627,2.29757806 29.9075251,2.31340933 C29.8954233,2.32924059 29.8895289,2.3497628 29.8911496,2.37042328 L29.9009165,9.42145952 Z M30.817056,8.17168984 L30.817056,3.41478099 C30.8165295,3.39700121 30.8224097,3.379719 30.8334014,3.36674102 C30.8443931,3.35376305 30.8595947,3.34615389 30.8756577,3.34558959 L35.8607068,3.34558959 C35.8766083,3.34613685 35.8916254,3.35381694 35.9023087,3.36686579 C35.9129921,3.37991463 35.9184234,3.39721065 35.9173551,3.41478099 L35.9173551,8.17168984 C35.9184234,8.18926018 35.9129921,8.20655619 35.9023087,8.21960504 C35.8916254,8.23265388 35.8766083,8.24033398 35.8607068,8.24088124 L30.8658908,8.24088124 C30.8498277,8.24031694 30.8346262,8.23270778 30.8236345,8.2197298 C30.8126428,8.20675183 30.8067626,8.18946961 30.8072565,8.17168984" id="Shape" fill="#103C60"></path>
                <polygon id="Path" fill="#103C60" points="42.3383953 16.7647059 42.3383953 15.8168123 41.9117647 15.8168123 41.9117647 15.6216578 43.0548128 15.6216578 43.0548128 15.8168123 42.6281822 15.8168123 42.6281822 16.7647059"></polygon>
                <polygon id="Path" fill="#103C60" points="43.0548128 16.7647059 43.0548128 15.6216578 43.4081979 15.6216578 43.6263369 16.4087097 43.8444759 15.6216578 44.197861 15.6216578 44.197861 16.7647059 43.979722 16.7647059 43.979722 15.8682816 43.733225 16.7647059 43.515086 16.7647059 43.2838587 15.8597034 43.2838587 16.7647059"></polygon>
                <path d="M25.1470588,6.67742835 L20.1938503,4.95320856 C20.1938503,5.66327221 20.3138721,6.12018274 21.0409274,6.37333587 L23.5290722,7.23930481 L25.1470588,6.67742835 Z" id="Path" fill="#103C60"></path>
                <path d="M25.1470588,7.2444666 L23.7184449,7.87076291 L23.7184449,7.87076291 L20.9632609,9.0751789 C20.3367117,9.36251815 20.1938503,9.98537327 20.1938503,10.6684492 L24.1715196,8.92376661 C25.0511376,8.51942695 25.1470588,8.0256164 25.1470588,7.23930481 L25.1470588,7.2444666 Z" id="Path" fill="#103C60"></path>
            </g>
        </g>
    </g>
</svg>