<?xml version="1.0" encoding="UTF-8"?>
<svg width="133px" height="52px" viewBox="0 0 133 52" version="1.1" xmlns="http://www.w3.org/2000/svg" xmlns:xlink="http://www.w3.org/1999/xlink">
    <!-- Generator: Sketch 58 (84663) - https://sketch.com -->
    <title>ibm_logo 2</title>
    <desc>Created with Sketch.</desc>
    <g id="Page-1" stroke="none" stroke-width="1" fill="none" fill-rule="evenodd">
        <g id="WEB-Desktop-IBM-Logo" transform="translate(-570.000000, -687.000000)" fill="#AEAEAE" fill-rule="nonzero">
            <g id="Group" transform="translate(-101.000000, 0.000000)">
                <g id="ibm_logo-2" transform="translate(671.500000, 687.000000)">
                    <path d="M0,0 L24.3157895,0 L24.3157895,3.46666667 L0,3.46666667 L0,0 Z M0,6.93333333 L24.3157895,6.93333333 L24.3157895,10.4 L0,10.4 L0,6.93333333 Z M0,41.6 L24.3157895,41.6 L24.3157895,45.0666667 L0,45.0666667 L0,41.6 Z M0,48.5333333 L24.3157895,48.5333333 L24.3157895,52 L0,52 L0,48.5333333 Z M6.94736842,34.6666667 L17.3684211,34.6666667 L17.3684211,38.1333333 L6.94736842,38.1333333 L6.94736842,34.6666667 Z M6.94736842,27.7333333 L17.3684211,27.7333333 L17.3684211,31.2 L6.94736842,31.2 L6.94736842,27.7333333 Z M6.94736842,20.8 L17.3684211,20.8 L17.3684211,24.2666667 L6.94736842,24.2666667 L6.94736842,20.8 Z M6.94736842,13.8666667 L17.3684211,13.8666667 L17.3684211,17.3333333 L6.94736842,17.3333333 L6.94736842,13.8666667 Z M34.7368421,13.8666667 L45.1578947,13.8666667 L45.1578947,17.3333333 L34.7368421,17.3333333 L34.7368421,13.8666667 Z M79.8947368,27.7333333 L90.3157895,27.7333333 L90.3157895,31.2 L79.8947368,31.2 L79.8947368,27.7333333 Z M79.8947368,34.6666667 L90.3157895,34.6666667 L90.3157895,38.1333333 L79.8947368,38.1333333 L79.8947368,34.6666667 Z M72.9473684,41.6 L90.3157895,41.6 L90.3157895,45.0666667 L72.9473684,45.0666667 L72.9473684,41.6 Z M114.631579,41.6 L132,41.6 L132,45.0666667 L114.631579,45.0666667 L114.631579,41.6 Z M114.631579,48.5333333 L132,48.5333333 L132,52 L114.631579,52 L114.631579,48.5333333 Z M72.9473684,48.5333333 L90.3157895,48.5333333 L90.3157895,52 L72.9473684,52 L72.9473684,48.5333333 Z M114.631579,27.7333333 L125.052632,27.7333333 L125.052632,31.2 L114.631579,31.2 L114.631579,27.7333333 Z M114.631579,34.6666667 L125.052632,34.6666667 L125.052632,38.1333333 L114.631579,38.1333333 L114.631579,34.6666667 Z M34.7368421,34.6666667 L45.1578947,34.6666667 L45.1578947,38.1333333 L34.7368421,38.1333333 L34.7368421,34.6666667 Z M91.3578947,0 L72.9473684,0 L72.9473684,3.46666667 L92.7473684,3.46666667 L91.3578947,0 Z M94.1368421,6.93333333 L72.9473684,6.93333333 L72.9473684,10.4 L95.5263158,10.4 L94.1368421,6.93333333 Z M96.9157895,13.8666667 L79.8947368,13.8666667 L79.8947368,17.3333333 L98.3052632,17.3333333 L96.9157895,13.8666667 Z M99.6947368,20.8 L79.8947368,20.8 L79.8947368,24.2666667 L101.084211,24.2666667 L99.6947368,20.8 Z M112.547368,27.7333333 L92.4,27.7333333 L93.7894737,31.2 L111.157895,31.2 L112.547368,27.7333333 Z M95.1789474,34.6666667 L109.768421,34.6666667 L108.378947,38.1333333 L96.5684211,38.1333333 L95.1789474,34.6666667 Z M97.9578947,41.6 L106.989474,41.6 L105.6,45.0666667 L99.3473684,45.0666667 L97.9578947,41.6 Z M100.736842,48.5333333 L104.210526,48.5333333 L102.821053,52 L102.126316,52 L100.736842,48.5333333 Z M113.242105,0 L132,0 L132,3.46666667 L111.852632,3.46666667 L113.242105,0 Z M110.463158,6.93333333 L132,6.93333333 L132,10.4 L109.073684,10.4 L110.463158,6.93333333 Z M107.684211,13.8666667 L125.052632,13.8666667 L125.052632,17.3333333 L106.294737,17.3333333 L107.684211,13.8666667 Z M104.905263,20.8 L125.052632,20.8 L125.052632,24.2666667 L103.515789,24.2666667 L104.905263,20.8 Z M53.8421053,52 L27.7894737,52 L27.7894737,48.5333333 L64.6105263,48.5333333 C62.8736842,49.92 58.3578947,52 53.8421053,52 Z M69.1263158,41.6 L27.7894737,41.6 L27.7894737,45.0666667 L67.7368421,45.0666667 C68.4315789,44.3733333 69.1263158,42.64 69.1263158,41.6 Z M68.4315789,34.6666667 L56.9684211,34.6666667 L56.9684211,38.1333333 L69.1263158,38.1333333 C69.4736842,37.0933333 69.1263158,35.7066667 68.4315789,34.6666667 Z M62.8736842,27.7333333 L34.7368421,27.7333333 L34.7368421,31.2 L66.6947368,31.2 C66.6947368,30.5066667 63.9157895,28.08 62.8736842,27.7333333 L62.8736842,27.7333333 Z M66.6947368,20.8 L34.7368421,20.8 L34.7368421,24.2666667 L62.8736842,24.2666667 C63.9157895,23.5733333 66,22.1866667 66.6947368,20.8 L66.6947368,20.8 Z M69.1263158,13.8666667 L56.9684211,13.8666667 L56.9684211,17.3333333 L68.4315789,17.3333333 C68.7789474,16.64 69.1263158,15.2533333 69.1263158,13.8666667 Z M67.3894737,6.93333333 L27.7894737,6.93333333 L27.7894737,10.4 L68.7789474,10.4 C68.7789474,9.36 67.7368421,7.62666667 67.3894737,6.93333333 L67.3894737,6.93333333 Z M27.7894737,0 L27.7894737,3.46666667 L64.2631579,3.46666667 C63.2210526,2.77333333 59.0526316,0 53.4947368,0 L27.7894737,0 Z" id="Shape"></path>
                </g>
            </g>
        </g>
    </g>
</svg>